<?xml version="1.0" encoding="utf-8"?>
<svg viewBox="0 0 400 400" xmlns="http://www.w3.org/2000/svg">
  <circle class="cls-1" cx="199.687" cy="200.234" r="196.577" style="fill:none;stroke-width:3px;stroke:#eee;stroke-miterlimit:10;"/>
  <path class="cls-2" d="M 269.288 193.305 C 286.633 187.682 302.248 179.966 312.016 163.353 C 311.754 165.651 311.354 167.932 310.822 170.184 C 308.684 177.612 304.969 184.492 299.929 190.353 C 291.892 199.755 281.636 207.001 270.09 211.436 L 261.472 214.795 L 261.586 215.582 L 273.463 214.317 C 273.814 214.879 273.983 215.02 273.997 215.189 C 274.362 221.401 274.658 227.613 275.107 233.812 C 275.332 236.876 275.023 239.364 271.242 239.813 C 270.324 240.117 269.45 240.537 268.642 241.064 L 275.234 242.906 C 274.953 244.662 274.658 246.644 274.334 248.626 C 274.334 249.006 274.122 249.371 274.109 249.736 C 273.758 254.979 273.28 260.208 273.14 265.45 C 272.971 271.269 272.844 271.592 267.082 273.279 L 271.495 274.952 L 269.12 282.064 C 267.714 286.28 266.309 290.497 264.903 294.713 C 263.863 297.721 263.821 297.707 258.817 298.705 L 260.757 301.685 L 246.505 315.923 L 243.258 313.196 L 242.963 317.005 L 222.358 318.495 L 221.908 315.178 C 217.846 319.394 215.71 314.728 213.124 313.421 C 208.134 310.891 206.377 305.887 205.14 300.771 C 204.662 298.775 204.002 296.807 203.355 294.643 L 204.241 294.306 C 204.319 292.616 204.546 290.937 204.915 289.288 C 205.712 286.185 206.879 283.188 208.387 280.363 C 210.245 277.198 212.772 274.478 215.793 272.393 C 216.628 271.753 217.496 271.157 218.394 270.608 C 219.585 269.873 220.892 269.346 222.26 269.048 C 226.715 268.486 234.038 274.403 235.218 278.662 C 236.118 281.923 236.427 284.776 233.588 287.573 L 237.271 288.712 L 221.613 294.039 L 220.995 293.673 L 227.263 284.495 C 226.31 283.745 225.412 282.928 224.577 282.049 C 222.513 279.534 222.161 279.463 220.109 281.839 C 218.604 283.596 217.087 285.352 215.724 287.208 C 213.405 290.356 214.164 294.025 214.318 297.51 C 214.318 298.241 215.808 298.916 216.539 299.576 C 221.472 304.425 226.56 304.425 232.815 301.53 C 236.482 299.829 239.07 298.129 240.686 294.502 C 242.71 289.934 245.17 285.549 247.348 281.052 C 247.811 280.115 248.051 279.087 248.051 278.044 C 247.768 268.073 247.433 258.104 247.039 248.134 C 246.953 247.389 246.672 246.681 246.224 246.082 C 243.005 241.303 239.66 236.609 236.524 231.788 C 234.051 228.207 231.842 224.448 229.92 220.544 C 228.704 217.307 227.764 213.973 227.109 210.578 C 226.94 209.96 226.884 209.314 226.785 208.681 C 223.437 209.103 220.733 211.614 220.067 214.922 C 219.687 216.538 218.844 218.056 218.437 219.672 C 217.888 221.865 216.314 221.584 214.81 221.303 C 211.676 220.74 208.542 220.08 205.421 219.433 C 200.614 218.435 195.794 217.494 191.043 216.299 C 190.312 216.116 189.637 214.809 189.356 213.896 C 188.19 209.538 187.262 205.125 186.095 200.768 C 184.69 195.61 183.2 190.494 181.766 185.307 C 180.558 180.964 179.391 176.607 178.168 172.264 C 177.831 171.055 177.339 169.903 176.917 168.722 L 176.215 168.877 C 176.13 169.863 176.13 170.854 176.215 171.842 C 176.789 175.173 177.465 178.476 178.14 181.793 C 179.068 186.403 180.08 190.985 180.951 195.61 C 181.443 198.21 181.654 200.866 182.132 203.467 C 182.61 206.067 183.439 208.962 183.832 211.759 C 184.087 213.956 184.187 216.168 184.126 218.379 C 184.126 223.804 184.478 229.188 182.202 234.444 C 179.845 239.716 175.963 244.162 171.056 247.206 C 166.529 249.937 161.735 252.199 156.748 253.953 C 154.794 254.712 152.363 254.206 150.156 254.347 C 136.705 255.176 125.953 249.526 116.058 240.952 C 104.603 231.029 97.716 218.14 91.461 204.83 C 89.324 199.787 87.635 194.567 86.415 189.229 C 85.821 186.254 85.43 183.245 85.249 180.219 C 84.701 177.623 84.39 174.985 84.321 172.334 C 84.727 165.869 85.502 159.431 86.205 152.994 C 87.458 142.38 90.868 132.135 96.226 122.888 C 102.2 112.248 109.985 103.449 121.343 98.235 C 127.156 95.644 133.605 94.828 139.882 95.888 C 145.181 96.675 150.001 99.345 154.555 102.451 C 159.164 105.479 163.988 108.166 168.99 110.491 C 170.751 111.045 172.636 111.074 174.415 110.575 C 178.632 109.802 182.666 108.65 186.798 107.764 C 190.607 106.963 194.43 106.218 198.281 105.726 C 199.598 105.754 200.893 106.086 202.062 106.696 C 210.017 109.746 218.015 112.698 225.844 116.057 C 227.615 116.816 228.781 119.008 230.157 120.597 C 232.773 123.633 235.106 126.95 237.973 129.719 C 241.698 133.317 245.746 136.606 249.822 139.824 C 252.774 142.172 254.038 145.362 255.036 148.749 C 257.271 155.777 259.59 162.805 261.797 169.931 C 263.919 176.747 265.943 183.606 268.038 190.437 C 268.361 191.337 268.809 192.194 269.288 193.305 Z M 218.141 145.587 C 218.206 140.977 213.257 138.027 209.233 140.275 C 205.209 142.523 205.129 148.284 209.087 150.645 C 210.002 151.191 211.046 151.482 212.112 151.49 C 215.415 151.552 218.127 148.891 218.127 145.587 Z" style="stroke-width: 5;fill:none;stroke-width:3px;stroke:#fff;stroke-linecap:round;stroke-linejoin:round;"/>
</svg>