<svg xmlns="http://www.w3.org/2000/svg" width="22" height="20" viewBox="0 0 21.94 19.81"><g data-name="Layer 2"><g data-name="Layer 1" fill="#fff"><path d="M5.33 2.77h8.98v.51H5.33zM5.33 5.37h6.14v.51H5.33zM5.33 7.96h5.5v.51h-5.5zM5.33 10.53h6.85v.51H5.33zM5.33 13.13h4.99v.51H5.33z"/><path d="M18.12 12.18l1.25 3.71 1-1.24 1.52.33-1.42-4.21a1.14 1.14 0 0 0 .88-.58 1 1 0 0 0 .1-.88 1.07 1.07 0 0 0-.2-.4 1.15 1.15 0 0 0 .71-1 1.09 1.09 0 0 0-.71-1 1.18 1.18 0 0 0 .06-1.29A1.19 1.19 0 0 0 20.15 5a1.68 1.68 0 0 0 0-.44 1.12 1.12 0 0 0-.54-.71 1.19 1.19 0 0 0-1.28.07 1.15 1.15 0 0 0-.81-.67V2.06a2.07 2.07 0 0 0-2-2.06H2a2.15 2.15 0 0 0-2 2.13v8.16l3.61.07v7.39a2.07 2.07 0 0 0 2.06 2.06H18.9a1.81 1.81 0 0 0 1.79-1.89V17h-3.14v-4.48a1.47 1.47 0 0 0 .57-.34zm3 2.16l-1-.2-.61.74-1-2.9a1 1 0 0 0 1-.07 1.13 1.13 0 0 0 .51-.57zM3.61 9.85l-3.1-.06V2.13A1.57 1.57 0 0 1 2.06.57a1.57 1.57 0 0 1 1.55 1.56zm2 9.42a1.57 1.57 0 0 1-1.56-1.55V2.13A2.05 2.05 0 0 0 3.37.57h12.12A1.57 1.57 0 0 1 17 2.13v1.14a1.12 1.12 0 0 0-.81.68A1.17 1.17 0 0 0 15 3.88 1.18 1.18 0 0 0 14.38 5a1.23 1.23 0 0 0-1.15.57 1.11 1.11 0 0 0 .07 1.25 1.14 1.14 0 0 0-.71 1.05 1.09 1.09 0 0 0 .71 1 1.18 1.18 0 0 0-.07 1.29 1.26 1.26 0 0 0 .84.57L12.62 15l1.52-.34 1 1.25 1.25-3.75a1.35 1.35 0 0 0 .6.37V17h-9.9l.06.27a1.4 1.4 0 0 1 .07.4 1.59 1.59 0 0 1-1.58 1.6zm8.8-8a1.24 1.24 0 0 0 .51.6 1.1 1.1 0 0 0 1 .07l-1 2.87-.57-.71-1 .2zm5.71 6.2v.38a1.29 1.29 0 0 1-1.29 1.38H7a2.07 2.07 0 0 0 .7-1.55v-.21zm-2.87-5.46a.64.64 0 0 1-.64-.64v-.17h-.17l-.34-.06v.06a.1.1 0 0 1 0 .07.64.64 0 0 1-.87.24.68.68 0 0 1-.23-.91l.07-.07.06-.07-.37-.34h-.13a.64.64 0 1 1-.64-1.11L14 9h.11L14 8.54a.13.13 0 0 0-.1 0h-.1a.64.64 0 1 1 0-1.28h.14l.13-.47H14a.15.15 0 0 1-.07 0 .65.65 0 0 1-.23-.88.68.68 0 0 1 .91-.23h.07c.07 0 0 0 .06.07l.37-.34-.11-.08v-.07a.65.65 0 0 1 .24-.87.66.66 0 0 1 .88.23.11.11 0 0 0 0 .07v.1l.48-.13a.1.1 0 0 0 0-.1v-.07a.65.65 0 0 1 1.29 0v.27l.43.13.11-.2a.15.15 0 0 1 0-.07.65.65 0 0 1 .88-.23.67.67 0 0 1 .23.91v.13l.37.33a.15.15 0 0 1 .07 0h.07a.66.66 0 0 1 .88.23.67.67 0 0 1-.24.88.15.15 0 0 0-.07 0h-.1l.14.47a.14.14 0 0 0 .1 0h.06a.64.64 0 1 1 0 1.28h-.37v.27l-.06.2.2.1a.15.15 0 0 1 .07 0 .73.73 0 0 1 .3.41.67.67 0 0 1-1 .74l-.07-.07-.06-.06-.34.37v.07a.64.64 0 1 1-1.12.64.15.15 0 0 0 0-.07v-.1l-.47.14a.12.12 0 0 0 0 .1v.06c.1.32-.25.63-.62.63z"/><path d="M19.54 7.9a2.26 2.26 0 1 0-2.26 2.26 2.26 2.26 0 0 0 2.26-2.26zm-2.26 1.75a1.77 1.77 0 0 1-1.76-1.75 1.79 1.79 0 0 1 1.76-1.76 1.76 1.76 0 0 1 0 3.51z"/></g></g></svg>
