<svg width="30" height="30" xmlns="http://www.w3.org/2000/svg"><g data-name="Layer 2"><path d="M14.99 5.573a4.3 4.3 0 1 0 4.3 4.3 4.31 4.31 0 0 0-4.3-4.3zm.32 5.44l-1 1-1-1-.89-.94 1-1 .94.94 2.22-2.2 1 1zm8.28-2.35a1.23 1.23 0 0 1-.33-1.38l.16-.45a1.21 1.21 0 0 0-.8-1.64l-.47-.12a1.23 1.23 0 0 1-.88-1.12v-.47a1.18 1.18 0 0 0-1.38-1.15l-.47.09a1.17 1.17 0 0 1-1.27-.62l-.25-.41a1.21 1.21 0 0 0-1.76-.41l-.38.26a1.23 1.23 0 0 1-1.42 0l-.38-.29a1.22 1.22 0 0 0-1.79.41l-.24.41a1.24 1.24 0 0 1-1.3.62l-.47-.09a1.24 1.24 0 0 0-1.44 1.15v.47a1.23 1.23 0 0 1-.88 1.12l-.47.12a1.22 1.22 0 0 0-.8 1.65l.18.44a1.22 1.22 0 0 1-.33 1.38l-.36.32a1.21 1.21 0 0 0 0 1.83l.36.32a1.24 1.24 0 0 1 .3 1.41l-.21.44a1.22 1.22 0 0 0 .8 1.65l.47.11a1.23 1.23 0 0 1 .88 1.12v.47a1.22 1.22 0 0 0 1.41 1.15l.48-.09a1.15 1.15 0 0 1 1.26.62l.24.41a1.21 1.21 0 0 0 1.76.42l.42-.3a1.25 1.25 0 0 1 1.41 0l.38.29a1.22 1.22 0 0 0 1.8-.41l.23-.41a1.24 1.24 0 0 1 1.3-.62l.47.09a1.24 1.24 0 0 0 1.44-1.15v-.47a1.23 1.23 0 0 1 .88-1.12l.47-.11a1.22 1.22 0 0 0 .8-1.65l-.15-.44a1.24 1.24 0 0 1 .33-1.39l.35-.32a1.21 1.21 0 0 0 0-1.83zm-8.6 7.18a5.95 5.95 0 1 1 5.95-5.94 5.95 5.95 0 0 1-5.95 5.94zm-2.91 13.1v-8.3a3.3 3.3 0 0 0 1.09.21 3.17 3.17 0 0 0 1.76-.56 3.06 3.06 0 0 0 1.77.59 2.93 2.93 0 0 0 1.12-.24v8.33a.31.31 0 0 1-.5.24l-2.27-1.89a.22.22 0 0 0-.27 0l-2.26 1.86a.27.27 0 0 1-.44-.24z" fill="none" stroke="#ffffff" stroke-miterlimit="10" stroke-width=".406" data-name="Layer 1"/></g></svg>
