<svg data-name="Calque 1" xmlns="http://www.w3.org/2000/svg" width="87" height="99" viewBox="0 0 86.67 98.87"><path fill="#ffffff" d="M86.1 71.07a12.62 12.62 0 0 0-2.83-1.57 45 45 0 0 0-5.23-1.46 8.72 8.72 0 0 0-2.55-.07 1.66 1.66 0 0 1-1.94-1.32.3.3 0 0 1 0-.1c-.09-.38-.17-.78-.26-1.17-.6-2.34-1.19-4.68-1.79-7l.17-.06 1.34 4 .32-.11c-.59-1.66-1.09-3.34-1.81-4.94-.37-.84-1.32-.85-2.12-.59a1.51 1.51 0 0 0-1 1.74c.17 1.69.38 3.39.51 5.09.08.94 0 1.88 0 2.72l-46.38-6.25c.44-.19.94-.43 1.47-.64l33.33-13.39q6.6-2.67 13.19-5.52a23.62 23.62 0 0 0 4-2.26c2-1.36 1.78-3.38-.3-4.49a11.41 11.41 0 0 0-2.1-.89 71.9 71.9 0 0 0-17-2.36 1.89 1.89 0 0 1-.94-.15c-2-1.37-4-2.82-5.88-4.12 6.59-3.77 13.1-7.41 19.59-11.11 3.87-2.22 7.72-4.48 11.58-6.71 1.32-.76 2.1-2.5 1.55-3.57A8.5 8.5 0 0 0 75.56.08a2.09 2.09 0 0 0-2.43 1 6.42 6.42 0 0 1-1.49 1.75 81.05 81.05 0 0 1-5.31 3.67c-7.93 5.14-16.44 9.26-24.78 13.67a1.52 1.52 0 0 1-1.22-.15c-2-1.29-4-2.67-6-4a114.28 114.28 0 0 0-18.84-10.2c-4.9-2-9.63-1-14.34.56A2.08 2.08 0 0 0 0 7.95c0 .48.77 1.13 1.33 1.29 2.83.85 5.65 1.58 8.48 2.32a7.69 7.69 0 0 0 1.27.11v-.24l-1.34-.84c6 1.24 26 10.8 28.9 13.79l-2.84-1.29-.26.48 10.79 6.86-.11.31c-1.54-.1-3.08-.28-4.62-.29h-30a7.68 7.68 0 0 0-6.87 3.85c-.56.88-.94 1.82-.24 2.74s1.66.78 2.68.56a54.61 54.61 0 0 1 5.97-1.17c4.18-.46 8.38-.86 12.59-1.11 11.1-.68 22.21-.88 33.33-.45 2.2.08 4.4.49 6.59.75v.31l-.94.42c-11.93 4.57-23.84 9.18-35.79 13.69q-9.66 3.64-19.4 7.06a7.3 7.3 0 0 0-5.25 5.94c-.21 1.18-.39 2.36-.51 3.56-.65 6.59.1 13.18 1.14 19.63 1.07 6.65 5.31 9.29 11.2 9.42a1.88 1.88 0 0 0 1.54-.87 2.94 2.94 0 0 0-.31-1.88c-.18-.44-.69-.73-.94-1.17-2.43-4.18-4.61-8.47-5.46-13.3a46 46 0 0 1-.6-11.18 1.56 1.56 0 0 1 1.42-1.68 1.86 1.86 0 0 1 .47 0 10.69 10.69 0 0 1 2.44.5 98.57 98.57 0 0 1 16.88 7.22c8.57 4.63 16.54 10.14 24.61 15.54.56.38 1.17.69 1.77 1l.32.28a5.35 5.35 0 0 0 .7.8c2.31 1.82 4.6 3.67 7 5.4a15.45 15.45 0 0 0 3.68 2c3.64 1.32 6.79-.18 7.9-3.77a9 9 0 0 0 .45-3.42c-.29-3.58-.73-7.15-1.16-10.71-.23-1.88-.57-3.69-.88-5.65a10.05 10.05 0 0 1 2.94.32c1.83.84 3.36.2 5-.52a19 19 0 0 0 2-.94c.17-.09.17-.51.24-.77.6-.48.87-1.18-.01-1.78zM69.33 82.28c-.3 2.67-.86 5.32-1.37 8-.15.79-.65.71-1.18.27q-2.7-2.33-5.45-4.62a44.7 44.7 0 0 0-4-3.24c-5.41-3.66-10.91-7.2-16.4-10.76-.52-.33-1.15-.76-1.24.47l-4.27-2.68 1-.54-7.21-4.27.06-.17c1.09.12 2.18.2 3.27.36 4.88.71 9.77 1.44 14.67 2.12 1.06.15 2.15.09 3.22.24a14.07 14.07 0 0 1 2 .6c.76.23 1.5.49 2.27.65 2.83.6 5.65 1.11 8.42 1.77 1.77.41 3.49 1 5.25 1.52 1.2.32.85 1.37 1 2.1.1 1.08-.15 2.2-.13 3.3a39.72 39.72 0 0 1 .09 4.88z"/></svg>
